<svg class="rich-terminal" viewBox="0 0 1970 1123.6" xmlns="http://www.w3.org/2000/svg">
    <!-- Generated with Rich https://www.textualize.io -->
    <style>

    @font-face {
        font-family: "Fira Code";
        src: local("FiraCode-Regular"),
                url("https://cdnjs.cloudflare.com/ajax/libs/firacode/6.2.0/woff2/FiraCode-Regular.woff2") format("woff2"),
                url("https://cdnjs.cloudflare.com/ajax/libs/firacode/6.2.0/woff/FiraCode-Regular.woff") format("woff");
        font-style: normal;
        font-weight: 400;
    }
    @font-face {
        font-family: "Fira Code";
        src: local("FiraCode-Bold"),
                url("https://cdnjs.cloudflare.com/ajax/libs/firacode/6.2.0/woff2/FiraCode-Bold.woff2") format("woff2"),
                url("https://cdnjs.cloudflare.com/ajax/libs/firacode/6.2.0/woff/FiraCode-Bold.woff") format("woff");
        font-style: bold;
        font-weight: 700;
    }

    .terminal-matrix {
        font-family: Fira Code, monospace;
        font-size: 20px;
        line-height: 24.4px;
        font-variant-east-asian: full-width;
    }

    .terminal-title {
        font-size: 18px;
        font-weight: bold;
        font-family: arial;
    }

    .terminal-r1 { fill: #e0e0e0 }
.terminal-r2 { fill: #c5c8c6 }
.terminal-r3 { fill: #bb9af7;font-weight: bold }
.terminal-r4 { fill: #999999 }
    </style>

    <defs>
    <clipPath id="terminal-clip-terminal">
      <rect x="0" y="0" width="1951.0" height="1072.6" />
    </clipPath>
    <clipPath id="terminal-line-0">
    <rect x="0" y="1.5" width="1952" height="24.65"/>
            </clipPath>
<clipPath id="terminal-line-1">
    <rect x="0" y="25.9" width="1952" height="24.65"/>
            </clipPath>
<clipPath id="terminal-line-2">
    <rect x="0" y="50.3" width="1952" height="24.65"/>
            </clipPath>
<clipPath id="terminal-line-3">
    <rect x="0" y="74.7" width="1952" height="24.65"/>
            </clipPath>
<clipPath id="terminal-line-4">
    <rect x="0" y="99.1" width="1952" height="24.65"/>
            </clipPath>
<clipPath id="terminal-line-5">
    <rect x="0" y="123.5" width="1952" height="24.65"/>
            </clipPath>
<clipPath id="terminal-line-6">
    <rect x="0" y="147.9" width="1952" height="24.65"/>
            </clipPath>
<clipPath id="terminal-line-7">
    <rect x="0" y="172.3" width="1952" height="24.65"/>
            </clipPath>
<clipPath id="terminal-line-8">
    <rect x="0" y="196.7" width="1952" height="24.65"/>
            </clipPath>
<clipPath id="terminal-line-9">
    <rect x="0" y="221.1" width="1952" height="24.65"/>
            </clipPath>
<clipPath id="terminal-line-10">
    <rect x="0" y="245.5" width="1952" height="24.65"/>
            </clipPath>
<clipPath id="terminal-line-11">
    <rect x="0" y="269.9" width="1952" height="24.65"/>
            </clipPath>
<clipPath id="terminal-line-12">
    <rect x="0" y="294.3" width="1952" height="24.65"/>
            </clipPath>
<clipPath id="terminal-line-13">
    <rect x="0" y="318.7" width="1952" height="24.65"/>
            </clipPath>
<clipPath id="terminal-line-14">
    <rect x="0" y="343.1" width="1952" height="24.65"/>
            </clipPath>
<clipPath id="terminal-line-15">
    <rect x="0" y="367.5" width="1952" height="24.65"/>
            </clipPath>
<clipPath id="terminal-line-16">
    <rect x="0" y="391.9" width="1952" height="24.65"/>
            </clipPath>
<clipPath id="terminal-line-17">
    <rect x="0" y="416.3" width="1952" height="24.65"/>
            </clipPath>
<clipPath id="terminal-line-18">
    <rect x="0" y="440.7" width="1952" height="24.65"/>
            </clipPath>
<clipPath id="terminal-line-19">
    <rect x="0" y="465.1" width="1952" height="24.65"/>
            </clipPath>
<clipPath id="terminal-line-20">
    <rect x="0" y="489.5" width="1952" height="24.65"/>
            </clipPath>
<clipPath id="terminal-line-21">
    <rect x="0" y="513.9" width="1952" height="24.65"/>
            </clipPath>
<clipPath id="terminal-line-22">
    <rect x="0" y="538.3" width="1952" height="24.65"/>
            </clipPath>
<clipPath id="terminal-line-23">
    <rect x="0" y="562.7" width="1952" height="24.65"/>
            </clipPath>
<clipPath id="terminal-line-24">
    <rect x="0" y="587.1" width="1952" height="24.65"/>
            </clipPath>
<clipPath id="terminal-line-25">
    <rect x="0" y="611.5" width="1952" height="24.65"/>
            </clipPath>
<clipPath id="terminal-line-26">
    <rect x="0" y="635.9" width="1952" height="24.65"/>
            </clipPath>
<clipPath id="terminal-line-27">
    <rect x="0" y="660.3" width="1952" height="24.65"/>
            </clipPath>
<clipPath id="terminal-line-28">
    <rect x="0" y="684.7" width="1952" height="24.65"/>
            </clipPath>
<clipPath id="terminal-line-29">
    <rect x="0" y="709.1" width="1952" height="24.65"/>
            </clipPath>
<clipPath id="terminal-line-30">
    <rect x="0" y="733.5" width="1952" height="24.65"/>
            </clipPath>
<clipPath id="terminal-line-31">
    <rect x="0" y="757.9" width="1952" height="24.65"/>
            </clipPath>
<clipPath id="terminal-line-32">
    <rect x="0" y="782.3" width="1952" height="24.65"/>
            </clipPath>
<clipPath id="terminal-line-33">
    <rect x="0" y="806.7" width="1952" height="24.65"/>
            </clipPath>
<clipPath id="terminal-line-34">
    <rect x="0" y="831.1" width="1952" height="24.65"/>
            </clipPath>
<clipPath id="terminal-line-35">
    <rect x="0" y="855.5" width="1952" height="24.65"/>
            </clipPath>
<clipPath id="terminal-line-36">
    <rect x="0" y="879.9" width="1952" height="24.65"/>
            </clipPath>
<clipPath id="terminal-line-37">
    <rect x="0" y="904.3" width="1952" height="24.65"/>
            </clipPath>
<clipPath id="terminal-line-38">
    <rect x="0" y="928.7" width="1952" height="24.65"/>
            </clipPath>
<clipPath id="terminal-line-39">
    <rect x="0" y="953.1" width="1952" height="24.65"/>
            </clipPath>
<clipPath id="terminal-line-40">
    <rect x="0" y="977.5" width="1952" height="24.65"/>
            </clipPath>
<clipPath id="terminal-line-41">
    <rect x="0" y="1001.9" width="1952" height="24.65"/>
            </clipPath>
<clipPath id="terminal-line-42">
    <rect x="0" y="1026.3" width="1952" height="24.65"/>
            </clipPath>
    </defs>

    <rect fill="#292929" stroke="rgba(255,255,255,0.35)" stroke-width="1" x="1" y="1" width="1968" height="1121.6" rx="8"/><text class="terminal-title" fill="#c5c8c6" text-anchor="middle" x="984" y="27">PrimarySurfaceSnapshotApp</text>
            <g transform="translate(26,22)">
            <circle cx="0" cy="0" r="7" fill="#ff5f57"/>
            <circle cx="22" cy="0" r="7" fill="#febc2e"/>
            <circle cx="44" cy="0" r="7" fill="#28c840"/>
            </g>
        
    <g transform="translate(9, 41)" clip-path="url(#terminal-clip-terminal)">
    <rect fill="#121212" x="0" y="1.5" width="1952" height="24.65" shape-rendering="crispEdges"/><rect fill="#121212" x="0" y="25.9" width="1952" height="24.65" shape-rendering="crispEdges"/><rect fill="#121212" x="0" y="50.3" width="1952" height="24.65" shape-rendering="crispEdges"/><rect fill="#121212" x="0" y="74.7" width="1952" height="24.65" shape-rendering="crispEdges"/><rect fill="#121212" x="0" y="99.1" width="1952" height="24.65" shape-rendering="crispEdges"/><rect fill="#121212" x="0" y="123.5" width="1952" height="24.65" shape-rendering="crispEdges"/><rect fill="#121212" x="0" y="147.9" width="1952" height="24.65" shape-rendering="crispEdges"/><rect fill="#121212" x="0" y="172.3" width="1952" height="24.65" shape-rendering="crispEdges"/><rect fill="#121212" x="0" y="196.7" width="1952" height="24.65" shape-rendering="crispEdges"/><rect fill="#121212" x="0" y="221.1" width="1952" height="24.65" shape-rendering="crispEdges"/><rect fill="#121212" x="0" y="245.5" width="1952" height="24.65" shape-rendering="crispEdges"/><rect fill="#121212" x="0" y="269.9" width="1952" height="24.65" shape-rendering="crispEdges"/><rect fill="#121212" x="0" y="294.3" width="1952" height="24.65" shape-rendering="crispEdges"/><rect fill="#121212" x="0" y="318.7" width="1952" height="24.65" shape-rendering="crispEdges"/><rect fill="#121212" x="0" y="343.1" width="1952" height="24.65" shape-rendering="crispEdges"/><rect fill="#121212" x="0" y="367.5" width="1952" height="24.65" shape-rendering="crispEdges"/><rect fill="#121212" x="0" y="391.9" width="451.4" height="24.65" shape-rendering="crispEdges"/><rect fill="#121212" x="451.4" y="391.9" width="451.4" height="24.65" shape-rendering="crispEdges"/><rect fill="#121212" x="902.8" y="391.9" width="1049.2" height="24.65" shape-rendering="crispEdges"/><rect fill="#121212" x="0" y="416.3" width="451.4" height="24.65" shape-rendering="crispEdges"/><rect fill="#121212" x="451.4" y="416.3" width="439.2" height="24.65" shape-rendering="crispEdges"/><rect fill="#121212" x="890.6" y="416.3" width="1061.4" height="24.65" shape-rendering="crispEdges"/><rect fill="#121212" x="0" y="440.7" width="451.4" height="24.65" shape-rendering="crispEdges"/><rect fill="#121212" x="451.4" y="440.7" width="0" height="24.65" shape-rendering="crispEdges"/><rect fill="#121212" x="451.4" y="440.7" width="1500.6" height="24.65" shape-rendering="crispEdges"/><rect fill="#121212" x="0" y="465.1" width="451.4" height="24.65" shape-rendering="crispEdges"/><rect fill="#121212" x="451.4" y="465.1" width="427" height="24.65" shape-rendering="crispEdges"/><rect fill="#121212" x="878.4" y="465.1" width="1073.6" height="24.65" shape-rendering="crispEdges"/><rect fill="#121212" x="0" y="489.5" width="451.4" height="24.65" shape-rendering="crispEdges"/><rect fill="#121212" x="451.4" y="489.5" width="0" height="24.65" shape-rendering="crispEdges"/><rect fill="#121212" x="451.4" y="489.5" width="1500.6" height="24.65" shape-rendering="crispEdges"/><rect fill="#121212" x="0" y="513.9" width="451.4" height="24.65" shape-rendering="crispEdges"/><rect fill="#121212" x="451.4" y="513.9" width="1037" height="24.65" shape-rendering="crispEdges"/><rect fill="#121212" x="1488.4" y="513.9" width="463.6" height="24.65" shape-rendering="crispEdges"/><rect fill="#121212" x="0" y="538.3" width="451.4" height="24.65" shape-rendering="crispEdges"/><rect fill="#121212" x="451.4" y="538.3" width="0" height="24.65" shape-rendering="crispEdges"/><rect fill="#121212" x="451.4" y="538.3" width="1500.6" height="24.65" shape-rendering="crispEdges"/><rect fill="#121212" x="0" y="562.7" width="451.4" height="24.65" shape-rendering="crispEdges"/><rect fill="#121212" x="451.4" y="562.7" width="73.2" height="24.65" shape-rendering="crispEdges"/><rect fill="#121212" x="524.6" y="562.7" width="329.4" height="24.65" shape-rendering="crispEdges"/><rect fill="#121212" x="854" y="562.7" width="256.2" height="24.65" shape-rendering="crispEdges"/><rect fill="#121212" x="1110.2" y="562.7" width="841.8" height="24.65" shape-rendering="crispEdges"/><rect fill="#121212" x="0" y="587.1" width="451.4" height="24.65" shape-rendering="crispEdges"/><rect fill="#121212" x="451.4" y="587.1" width="0" height="24.65" shape-rendering="crispEdges"/><rect fill="#121212" x="451.4" y="587.1" width="1500.6" height="24.65" shape-rendering="crispEdges"/><rect fill="#121212" x="0" y="611.5" width="451.4" height="24.65" shape-rendering="crispEdges"/><rect fill="#121212" x="451.4" y="611.5" width="158.6" height="24.65" shape-rendering="crispEdges"/><rect fill="#121212" x="610" y="611.5" width="1342" height="24.65" shape-rendering="crispEdges"/><rect fill="#121212" x="0" y="635.9" width="451.4" height="24.65" shape-rendering="crispEdges"/><rect fill="#121212" x="451.4" y="635.9" width="0" height="24.65" shape-rendering="crispEdges"/><rect fill="#121212" x="451.4" y="635.9" width="1500.6" height="24.65" shape-rendering="crispEdges"/><rect fill="#121212" x="0" y="660.3" width="451.4" height="24.65" shape-rendering="crispEdges"/><rect fill="#121212" x="451.4" y="660.3" width="73.2" height="24.65" shape-rendering="crispEdges"/><rect fill="#121212" x="524.6" y="660.3" width="85.4" height="24.65" shape-rendering="crispEdges"/><rect fill="#121212" x="610" y="660.3" width="73.2" height="24.65" shape-rendering="crispEdges"/><rect fill="#121212" x="683.2" y="660.3" width="73.2" height="24.65" shape-rendering="crispEdges"/><rect fill="#121212" x="756.4" y="660.3" width="48.8" height="24.65" shape-rendering="crispEdges"/><rect fill="#121212" x="805.2" y="660.3" width="48.8" height="24.65" shape-rendering="crispEdges"/><rect fill="#121212" x="854" y="660.3" width="48.8" height="24.65" shape-rendering="crispEdges"/><rect fill="#121212" x="902.8" y="660.3" width="36.6" height="24.65" shape-rendering="crispEdges"/><rect fill="#121212" x="939.4" y="660.3" width="1012.6" height="24.65" shape-rendering="crispEdges"/><rect fill="#121212" x="0" y="684.7" width="1952" height="24.65" shape-rendering="crispEdges"/><rect fill="#121212" x="0" y="709.1" width="1952" height="24.65" shape-rendering="crispEdges"/><rect fill="#121212" x="0" y="733.5" width="1952" height="24.65" shape-rendering="crispEdges"/><rect fill="#121212" x="0" y="757.9" width="1952" height="24.65" shape-rendering="crispEdges"/><rect fill="#121212" x="0" y="782.3" width="1952" height="24.65" shape-rendering="crispEdges"/><rect fill="#121212" x="0" y="806.7" width="1952" height="24.65" shape-rendering="crispEdges"/><rect fill="#121212" x="0" y="831.1" width="1952" height="24.65" shape-rendering="crispEdges"/><rect fill="#121212" x="0" y="855.5" width="1952" height="24.65" shape-rendering="crispEdges"/><rect fill="#121212" x="0" y="879.9" width="1952" height="24.65" shape-rendering="crispEdges"/><rect fill="#121212" x="0" y="904.3" width="1952" height="24.65" shape-rendering="crispEdges"/><rect fill="#121212" x="0" y="928.7" width="1952" height="24.65" shape-rendering="crispEdges"/><rect fill="#121212" x="0" y="953.1" width="1952" height="24.65" shape-rendering="crispEdges"/><rect fill="#121212" x="0" y="977.5" width="1952" height="24.65" shape-rendering="crispEdges"/><rect fill="#121212" x="0" y="1001.9" width="1952" height="24.65" shape-rendering="crispEdges"/><rect fill="#121212" x="0" y="1026.3" width="1952" height="24.65" shape-rendering="crispEdges"/><rect fill="#121212" x="0" y="1050.7" width="1952" height="24.65" shape-rendering="crispEdges"/>
    <g class="terminal-matrix">
    <text class="terminal-r2" x="1952" y="20" textLength="12.2" clip-path="url(#terminal-line-0)">
</text><text class="terminal-r2" x="1952" y="44.4" textLength="12.2" clip-path="url(#terminal-line-1)">
</text><text class="terminal-r2" x="1952" y="68.8" textLength="12.2" clip-path="url(#terminal-line-2)">
</text><text class="terminal-r2" x="1952" y="93.2" textLength="12.2" clip-path="url(#terminal-line-3)">
</text><text class="terminal-r2" x="1952" y="117.6" textLength="12.2" clip-path="url(#terminal-line-4)">
</text><text class="terminal-r2" x="1952" y="142" textLength="12.2" clip-path="url(#terminal-line-5)">
</text><text class="terminal-r2" x="1952" y="166.4" textLength="12.2" clip-path="url(#terminal-line-6)">
</text><text class="terminal-r2" x="1952" y="190.8" textLength="12.2" clip-path="url(#terminal-line-7)">
</text><text class="terminal-r2" x="1952" y="215.2" textLength="12.2" clip-path="url(#terminal-line-8)">
</text><text class="terminal-r2" x="1952" y="239.6" textLength="12.2" clip-path="url(#terminal-line-9)">
</text><text class="terminal-r2" x="1952" y="264" textLength="12.2" clip-path="url(#terminal-line-10)">
</text><text class="terminal-r2" x="1952" y="288.4" textLength="12.2" clip-path="url(#terminal-line-11)">
</text><text class="terminal-r2" x="1952" y="312.8" textLength="12.2" clip-path="url(#terminal-line-12)">
</text><text class="terminal-r2" x="1952" y="337.2" textLength="12.2" clip-path="url(#terminal-line-13)">
</text><text class="terminal-r2" x="1952" y="361.6" textLength="12.2" clip-path="url(#terminal-line-14)">
</text><text class="terminal-r2" x="1952" y="386" textLength="12.2" clip-path="url(#terminal-line-15)">
</text><text class="terminal-r3" x="451.4" y="410.4" textLength="451.4" clip-path="url(#terminal-line-16)">First&#160;Flight&#160;—&#160;1.&#160;Initialize&#160;Identity</text><text class="terminal-r2" x="1952" y="410.4" textLength="12.2" clip-path="url(#terminal-line-16)">
</text><text class="terminal-r1" x="451.4" y="434.8" textLength="439.2" clip-path="url(#terminal-line-17)">===&#160;KIN&#160;V1.1&#160;FIRST&#160;FLIGHT&#160;WIZARD&#160;===</text><text class="terminal-r2" x="1952" y="434.8" textLength="12.2" clip-path="url(#terminal-line-17)">
</text><text class="terminal-r2" x="1952" y="459.2" textLength="12.2" clip-path="url(#terminal-line-18)">
</text><text class="terminal-r1" x="451.4" y="483.6" textLength="427" clip-path="url(#terminal-line-19)">Step&#160;1&#160;of&#160;6:&#160;1.&#160;Initialize&#160;Identity</text><text class="terminal-r2" x="1952" y="483.6" textLength="12.2" clip-path="url(#terminal-line-19)">
</text><text class="terminal-r2" x="1952" y="508" textLength="12.2" clip-path="url(#terminal-line-20)">
</text><text class="terminal-r1" x="451.4" y="532.4" textLength="1037" clip-path="url(#terminal-line-21)">Create&#160;a&#160;new&#160;identity&#160;or&#160;restore&#160;an&#160;existing&#160;identity&#160;from&#160;a&#160;12-word&#160;recovery&#160;phrase.</text><text class="terminal-r2" x="1952" y="532.4" textLength="12.2" clip-path="url(#terminal-line-21)">
</text><text class="terminal-r2" x="1952" y="556.8" textLength="12.2" clip-path="url(#terminal-line-22)">
</text><text class="terminal-r1" x="451.4" y="581.2" textLength="73.2" clip-path="url(#terminal-line-23)">Press&#160;</text><text class="terminal-r1" x="524.6" y="581.2" textLength="329.4" clip-path="url(#terminal-line-23)">&#160;to&#160;Create&#160;New&#160;Identity&#160;or&#160;</text><text class="terminal-r1" x="854" y="581.2" textLength="256.2" clip-path="url(#terminal-line-23)">&#160;to&#160;Restore&#160;Identity.</text><text class="terminal-r2" x="1952" y="581.2" textLength="12.2" clip-path="url(#terminal-line-23)">
</text><text class="terminal-r2" x="1952" y="605.6" textLength="12.2" clip-path="url(#terminal-line-24)">
</text><text class="terminal-r1" x="451.4" y="630" textLength="158.6" clip-path="url(#terminal-line-25)">Progress:&#160;17%</text><text class="terminal-r2" x="1952" y="630" textLength="12.2" clip-path="url(#terminal-line-25)">
</text><text class="terminal-r2" x="1952" y="654.4" textLength="12.2" clip-path="url(#terminal-line-26)">
</text><text class="terminal-r4" x="451.4" y="678.8" textLength="73.2" clip-path="url(#terminal-line-27)">reate&#160;</text><text class="terminal-r4" x="524.6" y="678.8" textLength="85.4" clip-path="url(#terminal-line-27)">estore&#160;</text><text class="terminal-r4" x="610" y="678.8" textLength="73.2" clip-path="url(#terminal-line-27)">mport&#160;</text><text class="terminal-r4" x="683.2" y="678.8" textLength="73.2" clip-path="url(#terminal-line-27)">erify&#160;</text><text class="terminal-r4" x="756.4" y="678.8" textLength="48.8" clip-path="url(#terminal-line-27)">air&#160;</text><text class="terminal-r4" x="805.2" y="678.8" textLength="48.8" clip-path="url(#terminal-line-27)">emo&#160;</text><text class="terminal-r4" x="854" y="678.8" textLength="48.8" clip-path="url(#terminal-line-27)">kip&#160;</text><text class="terminal-r4" x="902.8" y="678.8" textLength="36.6" clip-path="url(#terminal-line-27)">ext</text><text class="terminal-r2" x="1952" y="678.8" textLength="12.2" clip-path="url(#terminal-line-27)">
</text><text class="terminal-r2" x="1952" y="703.2" textLength="12.2" clip-path="url(#terminal-line-28)">
</text><text class="terminal-r2" x="1952" y="727.6" textLength="12.2" clip-path="url(#terminal-line-29)">
</text><text class="terminal-r2" x="1952" y="752" textLength="12.2" clip-path="url(#terminal-line-30)">
</text><text class="terminal-r2" x="1952" y="776.4" textLength="12.2" clip-path="url(#terminal-line-31)">
</text><text class="terminal-r2" x="1952" y="800.8" textLength="12.2" clip-path="url(#terminal-line-32)">
</text><text class="terminal-r2" x="1952" y="825.2" textLength="12.2" clip-path="url(#terminal-line-33)">
</text><text class="terminal-r2" x="1952" y="849.6" textLength="12.2" clip-path="url(#terminal-line-34)">
</text><text class="terminal-r2" x="1952" y="874" textLength="12.2" clip-path="url(#terminal-line-35)">
</text><text class="terminal-r2" x="1952" y="898.4" textLength="12.2" clip-path="url(#terminal-line-36)">
</text><text class="terminal-r2" x="1952" y="922.8" textLength="12.2" clip-path="url(#terminal-line-37)">
</text><text class="terminal-r2" x="1952" y="947.2" textLength="12.2" clip-path="url(#terminal-line-38)">
</text><text class="terminal-r2" x="1952" y="971.6" textLength="12.2" clip-path="url(#terminal-line-39)">
</text><text class="terminal-r2" x="1952" y="996" textLength="12.2" clip-path="url(#terminal-line-40)">
</text><text class="terminal-r2" x="1952" y="1020.4" textLength="12.2" clip-path="url(#terminal-line-41)">
</text><text class="terminal-r2" x="1952" y="1044.8" textLength="12.2" clip-path="url(#terminal-line-42)">
</text>
    </g>
    </g>
</svg>
