<svg class="rich-terminal" viewBox="0 0 1116 733.1999999999999" xmlns="http://www.w3.org/2000/svg">
    <!-- Generated with Rich https://www.textualize.io -->
    <style>

    @font-face {
        font-family: "Fira Code";
        src: local("FiraCode-Regular"),
                url("https://cdnjs.cloudflare.com/ajax/libs/firacode/6.2.0/woff2/FiraCode-Regular.woff2") format("woff2"),
                url("https://cdnjs.cloudflare.com/ajax/libs/firacode/6.2.0/woff/FiraCode-Regular.woff") format("woff");
        font-style: normal;
        font-weight: 400;
    }
    @font-face {
        font-family: "Fira Code";
        src: local("FiraCode-Bold"),
                url("https://cdnjs.cloudflare.com/ajax/libs/firacode/6.2.0/woff2/FiraCode-Bold.woff2") format("woff2"),
                url("https://cdnjs.cloudflare.com/ajax/libs/firacode/6.2.0/woff/FiraCode-Bold.woff") format("woff");
        font-style: bold;
        font-weight: 700;
    }

    .terminal-matrix {
        font-family: Fira Code, monospace;
        font-size: 20px;
        line-height: 24.4px;
        font-variant-east-asian: full-width;
    }

    .terminal-title {
        font-size: 18px;
        font-weight: bold;
        font-family: arial;
    }

    .terminal-r1 { fill: #fea62b }
.terminal-r2 { fill: #c5c8c6 }
.terminal-r3 { fill: #ffff00;font-weight: bold }
.terminal-r4 { fill: #e0e0e0 }
.terminal-r5 { fill: #e0e0e0;font-weight: bold }
.terminal-r6 { fill: #9e9e9e }
.terminal-r7 { fill: #e0af68 }
    </style>

    <defs>
    <clipPath id="terminal-clip-terminal">
      <rect x="0" y="0" width="1097.0" height="682.1999999999999" />
    </clipPath>
    <clipPath id="terminal-line-0">
    <rect x="0" y="1.5" width="1098" height="24.65"/>
            </clipPath>
<clipPath id="terminal-line-1">
    <rect x="0" y="25.9" width="1098" height="24.65"/>
            </clipPath>
<clipPath id="terminal-line-2">
    <rect x="0" y="50.3" width="1098" height="24.65"/>
            </clipPath>
<clipPath id="terminal-line-3">
    <rect x="0" y="74.7" width="1098" height="24.65"/>
            </clipPath>
<clipPath id="terminal-line-4">
    <rect x="0" y="99.1" width="1098" height="24.65"/>
            </clipPath>
<clipPath id="terminal-line-5">
    <rect x="0" y="123.5" width="1098" height="24.65"/>
            </clipPath>
<clipPath id="terminal-line-6">
    <rect x="0" y="147.9" width="1098" height="24.65"/>
            </clipPath>
<clipPath id="terminal-line-7">
    <rect x="0" y="172.3" width="1098" height="24.65"/>
            </clipPath>
<clipPath id="terminal-line-8">
    <rect x="0" y="196.7" width="1098" height="24.65"/>
            </clipPath>
<clipPath id="terminal-line-9">
    <rect x="0" y="221.1" width="1098" height="24.65"/>
            </clipPath>
<clipPath id="terminal-line-10">
    <rect x="0" y="245.5" width="1098" height="24.65"/>
            </clipPath>
<clipPath id="terminal-line-11">
    <rect x="0" y="269.9" width="1098" height="24.65"/>
            </clipPath>
<clipPath id="terminal-line-12">
    <rect x="0" y="294.3" width="1098" height="24.65"/>
            </clipPath>
<clipPath id="terminal-line-13">
    <rect x="0" y="318.7" width="1098" height="24.65"/>
            </clipPath>
<clipPath id="terminal-line-14">
    <rect x="0" y="343.1" width="1098" height="24.65"/>
            </clipPath>
<clipPath id="terminal-line-15">
    <rect x="0" y="367.5" width="1098" height="24.65"/>
            </clipPath>
<clipPath id="terminal-line-16">
    <rect x="0" y="391.9" width="1098" height="24.65"/>
            </clipPath>
<clipPath id="terminal-line-17">
    <rect x="0" y="416.3" width="1098" height="24.65"/>
            </clipPath>
<clipPath id="terminal-line-18">
    <rect x="0" y="440.7" width="1098" height="24.65"/>
            </clipPath>
<clipPath id="terminal-line-19">
    <rect x="0" y="465.1" width="1098" height="24.65"/>
            </clipPath>
<clipPath id="terminal-line-20">
    <rect x="0" y="489.5" width="1098" height="24.65"/>
            </clipPath>
<clipPath id="terminal-line-21">
    <rect x="0" y="513.9" width="1098" height="24.65"/>
            </clipPath>
<clipPath id="terminal-line-22">
    <rect x="0" y="538.3" width="1098" height="24.65"/>
            </clipPath>
<clipPath id="terminal-line-23">
    <rect x="0" y="562.7" width="1098" height="24.65"/>
            </clipPath>
<clipPath id="terminal-line-24">
    <rect x="0" y="587.1" width="1098" height="24.65"/>
            </clipPath>
<clipPath id="terminal-line-25">
    <rect x="0" y="611.5" width="1098" height="24.65"/>
            </clipPath>
<clipPath id="terminal-line-26">
    <rect x="0" y="635.9" width="1098" height="24.65"/>
            </clipPath>
    </defs>

    <rect fill="#292929" stroke="rgba(255,255,255,0.35)" stroke-width="1" x="1" y="1" width="1114" height="731.2" rx="8"/><text class="terminal-title" fill="#c5c8c6" text-anchor="middle" x="557" y="27">PrimarySurfaceSnapshotApp</text>
            <g transform="translate(26,22)">
            <circle cx="0" cy="0" r="7" fill="#ff5f57"/>
            <circle cx="22" cy="0" r="7" fill="#febc2e"/>
            <circle cx="44" cy="0" r="7" fill="#28c840"/>
            </g>
        
    <g transform="translate(9, 41)" clip-path="url(#terminal-clip-terminal)">
    <rect fill="#1e1e1e" x="0" y="1.5" width="1098" height="24.65" shape-rendering="crispEdges"/><rect fill="#1e1e1e" x="0" y="25.9" width="12.2" height="24.65" shape-rendering="crispEdges"/><rect fill="#1e1e1e" x="12.2" y="25.9" width="12.2" height="24.65" shape-rendering="crispEdges"/><rect fill="#1e1e1e" x="24.4" y="25.9" width="170.8" height="24.65" shape-rendering="crispEdges"/><rect fill="#1e1e1e" x="195.2" y="25.9" width="12.2" height="24.65" shape-rendering="crispEdges"/><rect fill="#1e1e1e" x="207.4" y="25.9" width="878.4" height="24.65" shape-rendering="crispEdges"/><rect fill="#1e1e1e" x="1085.8" y="25.9" width="12.2" height="24.65" shape-rendering="crispEdges"/><rect fill="#1e1e1e" x="0" y="50.3" width="12.2" height="24.65" shape-rendering="crispEdges"/><rect fill="#1e1e1e" x="12.2" y="50.3" width="12.2" height="24.65" shape-rendering="crispEdges"/><rect fill="#1e1e1e" x="24.4" y="50.3" width="97.6" height="24.65" shape-rendering="crispEdges"/><rect fill="#1e1e1e" x="122" y="50.3" width="573.4" height="24.65" shape-rendering="crispEdges"/><rect fill="#1e1e1e" x="695.4" y="50.3" width="12.2" height="24.65" shape-rendering="crispEdges"/><rect fill="#1e1e1e" x="707.6" y="50.3" width="353.8" height="24.65" shape-rendering="crispEdges"/><rect fill="#1e1e1e" x="1061.4" y="50.3" width="24.4" height="24.65" shape-rendering="crispEdges"/><rect fill="#1e1e1e" x="1085.8" y="50.3" width="12.2" height="24.65" shape-rendering="crispEdges"/><rect fill="#1e1e1e" x="0" y="74.7" width="12.2" height="24.65" shape-rendering="crispEdges"/><rect fill="#1e1e1e" x="12.2" y="74.7" width="12.2" height="24.65" shape-rendering="crispEdges"/><rect fill="#1e1e1e" x="24.4" y="74.7" width="488" height="24.65" shape-rendering="crispEdges"/><rect fill="#1e1e1e" x="512.4" y="74.7" width="207.4" height="24.65" shape-rendering="crispEdges"/><rect fill="#1e1e1e" x="719.8" y="74.7" width="366" height="24.65" shape-rendering="crispEdges"/><rect fill="#1e1e1e" x="1085.8" y="74.7" width="12.2" height="24.65" shape-rendering="crispEdges"/><rect fill="#1e1e1e" x="0" y="99.1" width="12.2" height="24.65" shape-rendering="crispEdges"/><rect fill="#1e1e1e" x="12.2" y="99.1" width="12.2" height="24.65" shape-rendering="crispEdges"/><rect fill="#1e1e1e" x="24.4" y="99.1" width="97.6" height="24.65" shape-rendering="crispEdges"/><rect fill="#1e1e1e" x="122" y="99.1" width="231.8" height="24.65" shape-rendering="crispEdges"/><rect fill="#1e1e1e" x="353.8" y="99.1" width="732" height="24.65" shape-rendering="crispEdges"/><rect fill="#1e1e1e" x="1085.8" y="99.1" width="12.2" height="24.65" shape-rendering="crispEdges"/><rect fill="#1e1e1e" x="0" y="123.5" width="1098" height="24.65" shape-rendering="crispEdges"/><rect fill="#121212" x="0" y="147.9" width="1098" height="24.65" shape-rendering="crispEdges"/><rect fill="#121212" x="0" y="172.3" width="1098" height="24.65" shape-rendering="crispEdges"/><rect fill="#121212" x="0" y="196.7" width="1098" height="24.65" shape-rendering="crispEdges"/><rect fill="#121212" x="0" y="221.1" width="1098" height="24.65" shape-rendering="crispEdges"/><rect fill="#121212" x="0" y="245.5" width="1098" height="24.65" shape-rendering="crispEdges"/><rect fill="#121212" x="0" y="269.9" width="1098" height="24.65" shape-rendering="crispEdges"/><rect fill="#121212" x="0" y="294.3" width="1098" height="24.65" shape-rendering="crispEdges"/><rect fill="#121212" x="0" y="318.7" width="1098" height="24.65" shape-rendering="crispEdges"/><rect fill="#121212" x="0" y="343.1" width="1098" height="24.65" shape-rendering="crispEdges"/><rect fill="#121212" x="0" y="367.5" width="1098" height="24.65" shape-rendering="crispEdges"/><rect fill="#121212" x="0" y="391.9" width="1098" height="24.65" shape-rendering="crispEdges"/><rect fill="#121212" x="0" y="416.3" width="1098" height="24.65" shape-rendering="crispEdges"/><rect fill="#121212" x="0" y="440.7" width="1098" height="24.65" shape-rendering="crispEdges"/><rect fill="#121212" x="0" y="465.1" width="1098" height="24.65" shape-rendering="crispEdges"/><rect fill="#121212" x="0" y="489.5" width="1098" height="24.65" shape-rendering="crispEdges"/><rect fill="#121212" x="0" y="513.9" width="1098" height="24.65" shape-rendering="crispEdges"/><rect fill="#121212" x="0" y="538.3" width="1098" height="24.65" shape-rendering="crispEdges"/><rect fill="#121212" x="0" y="562.7" width="1098" height="24.65" shape-rendering="crispEdges"/><rect fill="#121212" x="0" y="587.1" width="1098" height="24.65" shape-rendering="crispEdges"/><rect fill="#121212" x="0" y="611.5" width="1098" height="24.65" shape-rendering="crispEdges"/><rect fill="#121212" x="0" y="635.9" width="1098" height="24.65" shape-rendering="crispEdges"/><rect fill="#121212" x="0" y="660.3" width="1098" height="24.65" shape-rendering="crispEdges"/>
    <g class="terminal-matrix">
    <text class="terminal-r1" x="0" y="20" textLength="1098" clip-path="url(#terminal-line-0)">╔════════════════════════════════════════════════════════════════════════════════════════╗</text><text class="terminal-r2" x="1098" y="20" textLength="12.2" clip-path="url(#terminal-line-0)">
</text><text class="terminal-r1" x="0" y="44.4" textLength="12.2" clip-path="url(#terminal-line-1)">║</text><text class="terminal-r3" x="24.4" y="44.4" textLength="170.8" clip-path="url(#terminal-line-1)">▲&#160;RISK:&#160;MEDIUM</text><text class="terminal-r1" x="1085.8" y="44.4" textLength="12.2" clip-path="url(#terminal-line-1)">║</text><text class="terminal-r2" x="1098" y="44.4" textLength="12.2" clip-path="url(#terminal-line-1)">
</text><text class="terminal-r1" x="0" y="68.8" textLength="12.2" clip-path="url(#terminal-line-2)">║</text><text class="terminal-r4" x="24.4" y="68.8" textLength="97.6" clip-path="url(#terminal-line-2)">Action:&#160;</text><text class="terminal-r5" x="122" y="68.8" textLength="573.4" clip-path="url(#terminal-line-2)">Requesting&#160;write&#160;access&#160;for&#160;medium&#160;risk&#160;action.</text><text class="terminal-r6" x="707.6" y="68.8" textLength="353.8" clip-path="url(#terminal-line-2)">(ActionClass.WORKSPACE_WRITE)</text><text class="terminal-r1" x="1085.8" y="68.8" textLength="12.2" clip-path="url(#terminal-line-2)">║</text><text class="terminal-r2" x="1098" y="68.8" textLength="12.2" clip-path="url(#terminal-line-2)">
</text><text class="terminal-r1" x="0" y="93.2" textLength="12.2" clip-path="url(#terminal-line-3)">║</text><text class="terminal-r4" x="24.4" y="93.2" textLength="488" clip-path="url(#terminal-line-3)">Requester:&#160;code-scout&#160;|&#160;Time&#160;Remaining:&#160;</text><text class="terminal-r7" x="512.4" y="93.2" textLength="207.4" clip-path="url(#terminal-line-3)">3600.0s&#160;remaining</text><text class="terminal-r1" x="1085.8" y="93.2" textLength="12.2" clip-path="url(#terminal-line-3)">║</text><text class="terminal-r2" x="1098" y="93.2" textLength="12.2" clip-path="url(#terminal-line-3)">
</text><text class="terminal-r1" x="0" y="117.6" textLength="12.2" clip-path="url(#terminal-line-4)">║</text><text class="terminal-r4" x="24.4" y="117.6" textLength="97.6" clip-path="url(#terminal-line-4)">Reason:&#160;</text><text class="terminal-r6" x="122" y="117.6" textLength="231.8" clip-path="url(#terminal-line-4)">Modify&#160;source&#160;files</text><text class="terminal-r1" x="1085.8" y="117.6" textLength="12.2" clip-path="url(#terminal-line-4)">║</text><text class="terminal-r2" x="1098" y="117.6" textLength="12.2" clip-path="url(#terminal-line-4)">
</text><text class="terminal-r1" x="0" y="142" textLength="1098" clip-path="url(#terminal-line-5)">╚════════════════════════════════════════════════════════════════════════════════════════╝</text><text class="terminal-r2" x="1098" y="142" textLength="12.2" clip-path="url(#terminal-line-5)">
</text><text class="terminal-r2" x="1098" y="166.4" textLength="12.2" clip-path="url(#terminal-line-6)">
</text><text class="terminal-r2" x="1098" y="190.8" textLength="12.2" clip-path="url(#terminal-line-7)">
</text><text class="terminal-r2" x="1098" y="215.2" textLength="12.2" clip-path="url(#terminal-line-8)">
</text><text class="terminal-r2" x="1098" y="239.6" textLength="12.2" clip-path="url(#terminal-line-9)">
</text><text class="terminal-r2" x="1098" y="264" textLength="12.2" clip-path="url(#terminal-line-10)">
</text><text class="terminal-r2" x="1098" y="288.4" textLength="12.2" clip-path="url(#terminal-line-11)">
</text><text class="terminal-r2" x="1098" y="312.8" textLength="12.2" clip-path="url(#terminal-line-12)">
</text><text class="terminal-r2" x="1098" y="337.2" textLength="12.2" clip-path="url(#terminal-line-13)">
</text><text class="terminal-r2" x="1098" y="361.6" textLength="12.2" clip-path="url(#terminal-line-14)">
</text><text class="terminal-r2" x="1098" y="386" textLength="12.2" clip-path="url(#terminal-line-15)">
</text><text class="terminal-r2" x="1098" y="410.4" textLength="12.2" clip-path="url(#terminal-line-16)">
</text><text class="terminal-r2" x="1098" y="434.8" textLength="12.2" clip-path="url(#terminal-line-17)">
</text><text class="terminal-r2" x="1098" y="459.2" textLength="12.2" clip-path="url(#terminal-line-18)">
</text><text class="terminal-r2" x="1098" y="483.6" textLength="12.2" clip-path="url(#terminal-line-19)">
</text><text class="terminal-r2" x="1098" y="508" textLength="12.2" clip-path="url(#terminal-line-20)">
</text><text class="terminal-r2" x="1098" y="532.4" textLength="12.2" clip-path="url(#terminal-line-21)">
</text><text class="terminal-r2" x="1098" y="556.8" textLength="12.2" clip-path="url(#terminal-line-22)">
</text><text class="terminal-r2" x="1098" y="581.2" textLength="12.2" clip-path="url(#terminal-line-23)">
</text><text class="terminal-r2" x="1098" y="605.6" textLength="12.2" clip-path="url(#terminal-line-24)">
</text><text class="terminal-r2" x="1098" y="630" textLength="12.2" clip-path="url(#terminal-line-25)">
</text><text class="terminal-r2" x="1098" y="654.4" textLength="12.2" clip-path="url(#terminal-line-26)">
</text>
    </g>
    </g>
</svg>
